<?xml version="1.0" encoding="utf-8"?>
<!-- Generator: Adobe Illustrator 25.3.0, SVG Export Plug-In . SVG Version: 6.00 Build 0)  -->
<svg width="118" height="30" version="1.1" id="Capa_1" xmlns="http://www.w3.org/2000/svg" xmlns:xlink="http://www.w3.org/1999/xlink" x="0px" y="0px"
	 viewBox="0 0 118 30" style="enable-background:new 0 0 118 30;" xml:space="preserve">
<style type="text/css">
	.st0{fill:#FFFFFF;}
</style>
<g>
	<path class="st0" d="M28.1,18.4l5.4,10.5h-9.6L18.4,19l2-7.9h6L27,9H19l-5.4,19.9H6l7.4-27.5h15.9c5.4,0,7.1,2.6,5.7,7.9l-0.6,2
		C33.5,15,31.2,17.6,28.1,18.4z"/>
	<path class="st0" d="M61,28.9H45.1c-5.4,0-7.1-2.6-5.7-7.9L42.6,9c1.4-5.4,4.8-7.9,9.9-7.9h15.9l-2,7.9H50.5L47.4,21h7.9l2.6-9.9
		h7.9L61,28.9z"/>
	<path class="st0" d="M84,1.4l-7.4,27.5h-7.9L76,1.4C76,1.4,84,1.4,84,1.4z"/>
</g>
<path class="st0" d="M91.6,24.7c-0.3,0-0.6,0-0.9-0.3c-0.9-0.6-0.9-2-0.3-3.1c0.6-1.1,2-1.4,2.3-1.4c2-0.3,3.4,0.9,3.4,1.1
	c1.4,1.4,1.4,3.4,1.1,5.1c-0.6,2-2,2.8-2.6,3.1c-2.8,1.7-6,0-6.2,0c-2.8-1.4-3.4-4.3-3.7-4.8c-0.9-3.1,0.6-6,2.6-7.7
	c2.8-2.6,5.7-2.6,6.5-2.6c1.1,0,2.3,0.3,2.8,0.6c0.6,0.3,1.7,0.3,3.1,0c0.6,0,2.8-0.6,4.3-2.8c0.3-0.6,1.1-2,1.1-4
	c-0.3-2.3-1.7-3.4-2-3.7c-0.6-0.3-1.7-1.4-3.4-1.1c-0.3,0-2,0.3-3.1,1.7c-0.3,0.3-0.9,1.1-0.9,2.3c0,0.9,0.9,1.7,1.7,2.3
	c0.3,0,0.6,0.3,1.1,0c0.3,0,0.9-0.3,1.1-0.9c0-0.6-0.3-0.9-0.3-1.1c0,0-0.9,0-1.1-0.6c-0.3-0.6,0-1.1,0.3-1.4
	c0.6-0.6,1.7-0.3,2.6,0.3c0.9,0.9,1.1,2,1.1,2c0.3,2-1.4,3.4-1.4,3.4c-1.4,1.1-3.4,1.1-4.8,0.3c-2-0.9-2.8-3.1-2.8-4.8
	c0-3.1,2.6-5.7,5.1-6.2c3.1-0.9,5.7,0.9,6,1.1c3.1,2,3.7,5.7,3.7,6.2c0.3,2.8-1.1,4.8-1.7,5.7c-0.6,0.9-1.4,1.7-2,2
	c-0.9,1.1-1.1,2.3-1.4,2.8c-0.9,2.8,0.6,5.1,0.9,5.4c0.3,0.6,0.9,1.4,1.7,2c2.3,1.4,4.5,0.6,4.5,0.6c0.6-0.3,2.3-0.9,3.1-2.8
	c0.9-2.3-0.6-4-0.6-4.3c0,0-0.9-1.1-2-1.1s-2,0.6-2.6,1.4c0,0-0.3,0.6,0.3,1.1c0,0,0.3,0.6,0.9,0.6c0.3,0,0.3-0.3,0.9-0.6
	c0.3,0,0.6-0.3,0.9,0c0.3,0,0.6,0.6,0.9,0.9c0.3,0.9-0.6,1.7-1.1,2c-1.1,0.6-2.6,0.3-3.4-0.3c-1.4-0.9-1.7-2.8-1.4-4.5
	c0.6-2.3,2.8-3.1,4.8-3.1c2.6,0,4.3,2,4.8,2.6c2,2.6,0.9,5.7,0.9,6.2c-0.9,2.8-3.7,4.5-6.2,5.1c-3.4,0.6-7.4-1.4-9.1-5.4
	c0-0.6-0.3-1.1-0.6-2c0-0.3-0.6-1.7-0.9-2.3c-0.9-1.7-2.8-2.8-5.1-2.8c-0.6,0-3.1-0.3-4.8,1.7c-0.3,0.3-1.7,2-1.4,4.3
	c0,0.3,0.3,2.6,2,3.4c0.9,0.6,2.6,1.1,4,0c0.9-0.6,1.7-2,1.1-3.1c-0.6-0.3-1.4-0.9-2-0.9c-0.6,0.3-0.6,0.9-0.6,0.9
	c0,0.6,0,0.9,0,1.1C92.2,24.4,91.9,24.7,91.6,24.7z"/>
</svg>
